<svg xmlns="http://www.w3.org/2000/svg" version="1.1" xmlns:xlink="http://www.w3.org/1999/xlink" xmlns:svgjs="http://svgjs.dev/svgjs" viewBox="0 0 13.091819792038887 13.091819792038887"><g transform="matrix(1,0,0,1,4.328604683369287,3.8830963290262415)"><rect width="13.091819792038887" height="13.091819792038887" x="-4.328604683369288" y="-3.883096329026242" fill="#ffffff"></rect><g><path d=" M 0.2585993470269892 -1.2474566494490114 L 0.45426164778227185 -1.3458297355200974 L 0.5216404738583582 -1.211814461030178 L 0.15086488110291396 -1.025399708886339 L -0.1658156014546921 -1.6552714989889612 L 0.009297690545469556 -1.743313165061714 L 0.2585993470269892 -1.2474566494490114 M 0.6265933852094292 -1.8356812965584446 L 0.6644321439812682 -1.7270846652358913 L 0.876903813960177 -1.8011170193547066 L 0.9259296840210813 -1.660413557902007 L 0.7134580140421725 -1.5863812037831917 L 0.7552451650336814 -1.4664527500617632 L 0.9960463910097781 -1.5503560847297537 L 1.0477045225504624 -1.4020980750111374 L 0.6218168640594053 -1.2537043340885343 L 0.3898488211537843 -1.9194489000224488 L 0.8157364796448415 -2.067842640945052 L 0.867394611185526 -1.9195846312264353 L 0.6265933852094292 -1.8356812965584446 M 1.5334984731710288 -1.9852949367080026 Q 1.5119272587949781 -2.0099461579828697 1.480283529628641 -2.019637618370629 Q 1.4486398004623036 -2.029329078758387 1.4092383152772472 -2.022435388512099 Q 1.3363455676848925 -2.0096820615564663 1.3027539179713155 -1.9550757334477173 Q 1.2691622682577386 -1.9004694053389684 1.283121991006472 -1.8206813978392287 Q 1.2988051363167772 -1.7310430190432249 1.3518105828822462 -1.692095328041123 Q 1.4048160294477152 -1.653147637039021 1.4905142597252132 -1.6681414133246977 Q 1.5919730840767339 -1.6858926657088893 1.6192868879576765 -1.7850841780350628 L 1.4252345734212728 -1.751132753572094 L 1.4009343153031073 -1.8900229888494184 L 1.761457904746375 -1.9531002546029543 L 1.7942029334162433 -1.7659431999739357 Q 1.7811982457796391 -1.7068172488232407 1.7458088640629665 -1.650881199072551 Q 1.710419482346294 -1.5949451493218612 1.6488657386006498 -1.5521972063199394 Q 1.5873119948550054 -1.5094492633180177 1.5016137645775074 -1.494455487032341 Q 1.3971998288371075 -1.4761872078796776 1.309077730117402 -1.5069605034008675 Q 1.2209556313976966 -1.5377337989220574 1.163075585252509 -1.6103450945876148 Q 1.1051955391073216 -1.682956390253172 1.0870996022108155 -1.7863852888639455 Q 1.0691760075704664 -1.8888291503450927 1.09896426596203 -1.976778906808641 Q 1.1287525243535934 -2.0647286632721893 1.2006989591981803 -2.1235075754189245 Q 1.272645394042767 -2.1822864875656593 1.377059329783167 -2.200554766718323 Q 1.5080692680234802 -2.223476286787231 1.6047974026950391 -2.1754276867768167 Q 1.701525537366598 -2.1273790867664033 1.7413413075222022 -2.0216591527571723 L 1.5334984731710288 -1.9852949367080026 M 2.39981606646252 -1.6735415403322116 L 2.1498384274190547 -1.6768851877800164 L 2.110303748458458 -1.562403708232089 L 1.904322173886643 -1.56515887372908 L 2.1707282726261345 -2.2666585462553073 L 2.3967080583214266 -2.263635888962492 L 2.643256074899125 -1.5552750518733691 L 2.436274589771136 -1.5580435919601514 L 2.39981606646252 -1.6735415403322116 M 2.3528266376786835 -1.8241834786580602 L 2.279882841881868 -2.053179554289833 L 2.2018401436964306 -1.8262030417165342 L 2.3528266376786835 -1.8241834786580602 M 2.9569937644763877 -1.6475927572317948 L 3.172893378420139 -1.6108727803943963 L 3.1477427093534276 -1.4629963324877173 L 2.738617870144949 -1.5325798502389518 L 2.856826014758492 -2.227599155400344 L 3.0500512400232194 -2.1947356144865076 L 2.9569937644763877 -1.6475927572317948 M 3.4837672351818325 -1.5232126846094578 L 3.693477606673581 -1.460105156621168 L 3.6502532724350263 -1.316467915873395 L 3.2528569063661874 -1.4360552406000628 L 3.4560112772873945 -2.111150272114596 L 3.6436972718644847 -2.054670475376218 L 3.4837672351818325 -1.5232126846094578 M 4.63433834936623 -1.646156714259591 L 4.204752353588276 -1.3170353502744123 L 4.109138458049393 -1.1144668853548216 L 3.9309867277406454 -1.1985558916992862 L 4.0266006232795295 -1.401124356618877 L 4.007642161021246 -1.941962203583012 L 4.210210625940836 -1.8463483080441285 L 4.2062441530098225 -1.5474431941827436 L 4.434482854958954 -1.74049006655465 L 4.63433834936623 -1.646156714259591" fill="#0e1425" fill-rule="nonzero"></path></g><g><path d=" M -1.4904250991622505 0.5178080885047953 L -1.6983166989196126 0.4034427534693796 L -1.814434759396184 0.6145204313839424 L -1.8606328926755977 0.5891059124871834 L -1.7445148321990263 0.3780282345726206 L -1.9555925101135891 0.2619101740960491 L -2.084856011398829 0.49688343818961905 L -2.131054144678243 0.47146891929286 L -1.9711179481727765 0.18073928744827344 L -1.4135542706626105 0.4874662396505377 L -1.573490467168077 0.7781958714951243 L -1.6196886004474906 0.7527813525983652 L -1.4904250991622505 0.5178080885047953 M -1.8676579340395945 1.4890571816980844 L -2.4562493133248666 1.2721902579609075 L -2.4342483210616748 1.212478089047909 L -1.9642282486179286 1.3856573281481763 L -2.3569305482510288 1.0026324668679423 L -2.3409012538878464 0.9591278866599006 L -1.7952694706023973 0.9218329038012532 L -2.2635834810772004 0.7492822644799341 L -2.2415824888140086 0.6895700955669355 L -1.6529911095287368 0.9064370193041125 L -1.6762493013498254 0.9695613121549966 L -2.270279900553331 1.0093692511033094 L -1.8440854423290318 1.4250798578627288 L -1.8676579340395945 1.4890571816980844 M -2.273442417223917 1.9411094422032313 Q -2.312006569937927 1.878742258287467 -2.2910598450042694 1.773534498444941 L -2.2660302838547293 1.6478201413449738 L -2.5317244570163626 1.5949207851565845 L -2.5192984337506337 1.5325094021991539 L -1.8960761953614336 1.6565921202383622 L -1.9335317797767022 1.8447178602957601 Q -1.9543009900922779 1.94903402895318 -2.013900625048986 1.9923204004724946 Q -2.073500260005694 2.0356067719918096 -2.1546350578503537 2.0194529417463616 Q -2.2348782645099075 2.003476626118996 -2.273442417223917 1.9411094422032313 M -2.141854005348461 1.9552583764187186 Q -2.0794426223910305 1.9676843996844477 -2.040422269622017 1.9393028697162542 Q -2.0014019168530037 1.9109213397480604 -1.9861356596979651 1.8342444978289314 L -1.9611060985484254 1.7085301407289641 L -2.2125348127483604 1.6584710184298843 L -2.2375643738979 1.7841853755298518 Q -2.2666767712633225 1.9304063298872607 -2.141854005348461 1.9552583764187186 M -2.60141999493788 2.281550557134748 Q -2.5568082652719273 2.2117036156905834 -2.4808994415954038 2.173779168282784 Q -2.4049906179188802 2.1358547208749843 -2.311452650271336 2.1401462478070075 Q -2.2179146826237917 2.144437774739031 -2.1457974021590562 2.1891536676800327 Q -2.07368012169432 2.2338695606210344 -2.0356515110114715 2.3075080452769865 Q -1.9976229003286228 2.3811465299329386 -2.0016644354005284 2.469235683931111 Q -2.0057476357824537 2.5582329735375127 -2.050359365448406 2.6280799149816767 Q -2.0949710951143588 2.697926856425841 -2.1708590861358723 2.7353972360295264 Q -2.2467470771573863 2.7728676156332117 -2.34028504480493 2.7685760887011885 Q -2.4338230124524745 2.764284561769165 -2.5059611255722203 2.7200227366322776 Q -2.578099238691966 2.67576091149539 -2.6161278493748146 2.602122426839438 Q -2.6541564600576635 2.5284839421834864 -2.650073259675738 2.439486652577085 Q -2.6460317246038327 2.351397498578912 -2.60141999493788 2.281550557134748 M -2.5678172490803157 2.5706671728009924 Q -2.5377076164053047 2.628471531671872 -2.4779084140105825 2.663976821994427 Q -2.41810921161586 2.699482112316982 -2.3372851424835157 2.7031903249087303 Q -2.2564610733511716 2.7068985375004786 -2.194116036439149 2.676997231375566 Q -2.1317709995271272 2.647095925250653 -2.09649486840968 2.592291468701188 Q -2.061218737292233 2.537487012151723 -2.0579688431107006 2.4666524347098933 Q -2.0547189489291684 2.3958178572680637 -2.0848285816041794 2.338013498397184 Q -2.1149382142791904 2.2802091395263044 -2.1742833488697983 2.2447246818587594 Q -2.2336284834604063 2.209240224191214 -2.3144525525927504 2.2055320115994657 Q -2.3952766217250945 2.2018237990077174 -2.458075726441231 2.23170427247762 Q -2.520874831157368 2.2615847459475233 -2.556150962274815 2.3163892024969885 Q -2.5914270933922623 2.3711936590464537 -2.5946769875737945 2.4420282364882833 Q -2.5979268817553267 2.512862813930113 -2.5678172490803157 2.5706671728009924 M -1.9078508272711028 3.687250161482116 L -2.562809410485282 3.6022105612189543 L -2.5731894775055104 3.5320653305741754 L -2.060629661239764 3.2944745544519014 L -2.620565168008092 3.211915303528772 L -2.6315783772924783 3.1437017463238623 L -2.027886986915284 2.8760835199232577 L -2.017906153241987 2.9435308570816994 L -2.5478832771139506 3.168995190242786 L -1.9727927850386862 3.2483928210378554 L -1.9624127180184576 3.318538051682635 L -2.4905267529380724 3.5565925544466306 L -1.9178316609443993 3.619802824323674 L -1.9078508272711028 3.687250161482116 M -1.890428759601715 3.877241078656894 L -2.1164639582593714 3.949396716518615 L -2.043202486867203 4.178896056151867 L -2.093432531013349 4.194930642343361 L -2.1666940024055172 3.9654313027101082 L -2.39619334203877 4.038692774102277 L -2.314638119168243 4.294173171052502 L -2.3648681633143886 4.310207757243995 L -2.4657754729677532 3.9941048932208356 L -1.8595508022384062 3.8005840253924656 L -1.7586434925850418 4.116686889415625 L -1.8088735367311877 4.132721475607118 L -1.890428759601715 3.877241078656894 M -2.142590061887649 4.828766849235173 L -1.9672368554138515 4.574892708319563 L -2.016281273313667 4.468367886635358 L -2.2574072262732634 4.579383158160522 L -2.284020476296419 4.521578991355139 L -1.7068045820540974 4.255826680409627 L -1.6269648319846302 4.429239180825776 Q -1.582482685517356 4.525854716771915 -1.6057245671559346 4.597104632386521 Q -1.6289664487945135 4.668354548001126 -1.704111865641511 4.702951773031228 Q -1.7668706753159265 4.731846158770654 -1.82758780817443 4.716265124773578 Q -1.8883049410329336 4.700684090776503 -1.9338334113308528 4.636576345375259 L -2.110654161859862 4.898131849401632 L -2.142590061887649 4.828766849235173 M -1.9692121660578552 4.446697097330788 L -1.9156054767254989 4.563131204753059 Q -1.8844299552698023 4.630844657296508 -1.8356211474387125 4.649906699032181 Q -1.7868123396076232 4.668968740767855 -1.7314854942367568 4.643496058602834 Q -1.6745071012428796 4.6172629978657245 -1.6587481547532277 4.569974947178815 Q -1.642989208263576 4.522686896491906 -1.6756854868634528 4.451670348702436 L -1.7289119869097642 4.33606201509167 L -1.9692121660578552 4.446697097330788 M -1.4285939770522114 4.809234328649261 L -1.9786406092679873 5.127434237082506 L -2.0105061222727474 5.072350883355604 L -1.4604594900569714 4.754150974922359 L -1.4285939770522114 4.809234328649261 M -1.5790774274596515 5.716394983935927 L -1.6164706198060688 5.664903859040432 L -1.3906761055133992 5.066128681408298 L -1.8232015546355473 5.380231497118203 L -1.8605947469819646 5.3287403722227085 L -1.3464190855255334 4.955342637220627 L -1.309025893179116 5.006833762116122 L -1.5340848199732786 5.605074751286165 L -1.1022949583496375 5.291506124038351 L -1.0649017660032203 5.3429972489338455 L -1.5790774274596515 5.716394983935927 M -0.7324976666040447 5.956463044753459 Q -0.7078005971086863 5.892677723910528 -0.7223226687690941 5.827836389170346 Q -0.736844740429502 5.762995054430164 -0.7905106703754521 5.709953972307074 Q -0.8409437129752606 5.660108136095013 -0.9040372866268289 5.643763875690465 Q -0.9671308602783971 5.627419615285918 -1.0329044197873096 5.647411246430188 Q -1.0986779792962218 5.6674028775744585 -1.154914307330342 5.72430169486655 Q -1.2111506353644623 5.781200512158642 -1.230690141680039 5.847526973156351 Q -1.2502296479956156 5.913853434154062 -1.233147615462873 5.976751272343047 Q -1.2160655829301303 6.039649110532033 -1.1656325403303218 6.089494946744094 Q -1.1184323850766549 6.136145537045126 -1.0604775538873124 6.153162723923479 Q -1.0025227226979698 6.170179910801833 -0.9421848453813187 6.155041374820287 Q -0.8818469680646678 6.13990283883874 -0.8287682445064651 6.092665042149961 L -1.0188620204595895 5.904784582581423 L -0.9824362170738526 5.867929666835409 L -0.744495708397833 6.103099765887185 L -0.7770872166903344 6.1360752168178285 Q -0.8391126287994198 6.192365098075804 -0.9158177789890343 6.2117779063340475 Q -0.9925229291786488 6.231190714592291 -1.0688186429402409 6.2107453325125626 Q -1.1451143567018327 6.190299950432833 -1.2058926388092943 6.130229327305478 Q -1.2686106533244408 6.068241556631504 -1.2906135356031085 5.988337396387349 Q -1.3126164178817765 5.9084332361431935 -1.289953184381883 5.826660434610718 Q -1.2672899508819895 5.744887633078241 -1.2014678851147806 5.678290153747724 Q -1.1356458193475718 5.611692674417208 -1.054144036147902 5.588073348465469 Q -0.9726422529482318 5.564454022513731 -0.892485895088826 5.58551963305811 Q -0.8123295372294203 5.606585243602488 -0.7496115227142737 5.668573014276461 Q -0.6771948461607025 5.740146522683523 -0.6586690929490552 5.830034992265605 Q -0.6401433397374078 5.919923461847688 -0.6794783141273228 6.0088650776943435 L -0.7324976666040447 5.956463044753459 M 0.15038247278485073 6.361780202233514 L -0.2295261359100435 6.580463401408698 L -0.36199716014141137 6.789258107740025 L -0.41573109191785573 6.755166300033423 L -0.2832600676864878 6.546371593702096 L -0.24878387755445014 6.108526773555899 L -0.18814129740674868 6.147001813681921 L -0.22522344903794378 6.514289331359791 L 0.09050752023395559 6.323792187931872 L 0.15038247278485073 6.361780202233514 M 0.12436467921300029 7.020000048247647 Q 0.07529933609533745 6.953206382697398 0.06729325940258546 6.8687296642530224 Q 0.05928718270983349 6.784252945808647 0.09701379736604682 6.698553055834255 Q 0.13474041202226017 6.612853165859863 0.20244977210300025 6.561707728325346 Q 0.2701591321837403 6.510562290790829 0.3525557562112615 6.501640519567586 Q 0.4349523802387827 6.492718748344344 0.5156600436127248 6.528247696127379 Q 0.5971997447534085 6.5641429217226115 0.6462650878710714 6.630936587272861 Q 0.695330430988734 6.69773025282311 0.7029204887981153 6.7820238323613875 Q 0.7105105466074965 6.866317411899665 0.6727839319512832 6.952017301874057 Q 0.6350573172950698 7.037717191848449 0.5677639760977006 7.089045768289064 Q 0.5004706349003313 7.140374344729679 0.4180740108728101 7.149296115952922 Q 0.33567738684528886 7.158217887176164 0.25413768570460515 7.122322661580933 Q 0.1734300223306631 7.0867937137978965 0.12436467921300029 7.020000048247647 M 0.40615192083147494 7.092893891914465 Q 0.47092426360852346 7.085649756667932 0.5256013755344701 7.042673208651934 Q 0.5802784874604169 6.999696660635936 0.6128772127458828 6.925645299395927 Q 0.6454759380313486 6.8515939381559186 0.640063191845797 6.782661406545162 Q 0.6346504456602453 6.7137288749344055 0.5962501053613266 6.661066290975538 Q 0.5578497650624079 6.60840370701667 0.4929508192565575 6.579834037665363 Q 0.42805187345070717 6.5512643683140555 0.3632795306736587 6.558508503560589 Q 0.2985071878966103 6.565752638807122 0.24401321487676164 6.608313167939749 Q 0.18951924185691305 6.650873697072376 0.15692051657144712 6.724925058312385 Q 0.12432179128598125 6.798976419552393 0.1295513985654348 6.868324970046521 Q 0.13478100584488834 6.937673520540648 0.1731813461438071 6.990336104499516 Q 0.2115816864427258 7.0429986884583835 0.27648063224857616 7.07156835780969 Q 0.3413795780544265 7.100138027160998 0.40615192083147494 7.092893891914465 M 0.9945003223078963 6.716360126274898 L 0.8941555932158686 7.103569288541815 Q 0.8704377481577529 7.195091454168541 0.902595968788687 7.2503812773580885 Q 0.9347541894196211 7.305671100547637 1.0104359802263367 7.325283933961079 Q 1.0861177710330523 7.344896767374521 1.1400875629875995 7.312396462439864 Q 1.194057354942147 7.279896157505207 1.2180032562027445 7.187493971055147 L 1.3183479852947722 6.80028480878823 L 1.3799494429281454 6.816248742961962 L 1.2798327700385994 7.202577884405545 Q 1.2495012951085092 7.319620653908954 1.1721800614971831 7.362504086797353 Q 1.094858827885857 7.4053875196857515 0.9954164748491261 7.379617168805298 Q 0.8959741218123951 7.353846817924846 0.8492124193336411 7.278807460486502 Q 0.8024507168548871 7.203768103048158 0.8327821917849773 7.086725333544749 L 0.9328988646745231 6.700396192101166 L 0.9945003223078963 6.716360126274898 M 2.5830885033101803 6.897501899574575 L 2.3965294318992907 7.531061835344783 L 2.325624129530172 7.530328848648125 L 2.1712334481743123 6.986885696460858 L 2.002005057178806 7.526983422186457 L 1.9329084422204765 7.527178272358548 L 1.7631323143749793 6.889025566236303 L 1.8313104897299017 6.889730361136936 L 1.970996740165901 7.4484768768258505 L 2.1394758423341513 6.8929160340877935 L 2.2103811447032706 6.893649020784451 L 2.362793987872189 7.452527098188152 L 2.5149103279552576 6.896797104673943 L 2.5830885033101803 6.897501899574575 M 2.7652882692202434 6.857979541928241 L 2.842785171607558 7.4886908145873035 L 2.779623813830542 7.496451591650411 L 2.7021269114432274 6.865740318991349 L 2.7652882692202434 6.857979541928241 M 3.2948021774192076 6.759275191031721 L 3.305692566138406 6.81086554597139 L 3.1331317237539977 6.84729201858388 L 3.253489295633412 7.417454389555042 L 3.191225074154502 7.430597962147178 L 3.070867502275088 6.8604355911760155 L 2.89741717101241 6.897049829111251 L 2.886526782293212 6.845459474171582 L 3.2948021774192076 6.759275191031721 M 3.8593803035794845 6.5689498437369735 L 4.072644673482241 7.167548864675718 L 4.012699134904684 7.188905811590157 L 3.91293168289009 6.908874509949285 L 3.588369409734462 7.024507122528892 L 3.6881368617490566 7.304538424169763 L 3.6281913231715 7.3258953710842025 L 3.4149269532687434 6.727296350145458 L 3.4748724918463 6.705939403231019 L 3.5706736537196413 6.9748379619932015 L 3.8952359268752694 6.859205349413595 L 3.7994347650019282 6.590306790651413 L 3.8593803035794845 6.5689498437369735 M 4.6034374939602385 6.844565624213429 L 4.800319985725425 6.729221675151972 L 4.8265136315282255 6.773932041807811 L 4.574723671940079 6.921443626065689 L 4.253506857621521 6.373153340233558 L 4.308414325444482 6.340985705037136 L 4.6034374939602385 6.844565624213429 M 4.681778662311151 6.166337961626959 L 4.8224402815281495 6.357420812732678 L 5.016451605447749 6.214603459887833 L 5.047709743051526 6.257066315689104 L 4.853698419131927 6.399883668533949 L 4.996515771976772 6.593894992453548 L 5.212490642000477 6.434909637399853 L 5.243748779604254 6.477372493201123 L 4.976525635337636 6.674083186742136 L 4.599272250464462 6.161600444313006 L 4.866495394731079 5.964889750771993 L 4.897753532334857 6.007352606573264 L 4.681778662311151 6.166337961626959 M 5.471648093425996 5.655925045563688 Q 5.408195032848199 5.630386417957556 5.3431672805245505 5.644049531948613 Q 5.278139528200902 5.65771264593967 5.22439322169339 5.7106722811966515 Q 5.173884644493559 5.760441576980321 5.156707245286157 5.8233134374647 Q 5.139529846078755 5.886185297949077 5.1586497100585005 5.952217541949088 Q 5.177769574038246 6.0182497859490995 5.23391954876854 6.075233821764294 Q 5.290069523498835 6.132217857579487 5.356131723456525 6.152632986094571 Q 5.422193923414215 6.173048114609655 5.4853122110373125 6.15679955615589 Q 5.5484304986604105 6.1405509977021255 5.598939075860241 6.090781701918456 Q 5.646209923752391 6.044202745608097 5.663992217970398 5.986478079131952 Q 5.681774512188404 5.928753412655806 5.667435418435189 5.868220569495416 Q 5.653096324681975 5.807687726335026 5.6065647582059865 5.753988809661883 L 5.416186274914316 5.9415807706926405 L 5.379816404918557 5.904670656585072 L 5.618113281963913 5.669861671349294 L 5.650654744591697 5.702886510287645 Q 5.70611926159296 5.765651069022296 5.724515755976179 5.842606290966559 Q 5.742912250359397 5.919561512910823 5.721459457283892 5.995580111003898 Q 5.700006664208386 6.071598709096972 5.639137353223975 6.131577091195242 Q 5.576325404654955 6.193469676977498 5.496137192386447 6.2144137039559295 Q 5.415948980117939 6.235357730934361 5.334483110003049 6.211614832426294 Q 5.253017239888159 6.1878719339182275 5.187296246737928 6.121174710179989 Q 5.121575253587697 6.054477486441751 5.099036056872609 5.972670409519402 Q 5.076496860157522 5.890863332597053 5.098620894011748 5.810992632218819 Q 5.120744927865974 5.731121931840585 5.183556876434994 5.669229346058329 Q 5.256082012927059 5.597765741856136 5.346207667397204 5.580430606950523 Q 5.436333321867349 5.563095472044911 5.524746854071972 5.603603478201368 L 5.471648093425996 5.655925045563688 M 6.103768594664319 5.336698207387115 L 5.932688326390907 5.569732744583869 L 6.021518001893999 5.703740390188864 L 5.981706870283205 5.7579685529327636 L 5.613252900924586 5.199889332511924 L 5.655753973860434 5.141997104717762 L 6.2980439701095134 5.327074503021783 L 6.25823283849872 5.3813026657656815 L 6.103768594664319 5.336698207387115 M 6.0499676865160374 5.320883961227599 L 5.698721988144641 5.218652592440814 L 5.9014829253730765 5.523140352002141 L 6.0499676865160374 5.320883961227599 M 6.385807023871262 5.072018867880199 L 6.497722823790739 4.873167677596751 L 6.5428802654088924 4.898582819411134 L 6.399752887822629 5.152890516944946 L 5.845980051136852 4.841220619958037 L 5.877191628803638 4.785764112707673 L 6.385807023871262 5.072018867880199 M 6.168293725552449 4.17588751047868 L 6.759970074133334 4.407666668016264 L 6.7367589997018165 4.46691894899003 L 6.145082651120931 4.235139791452445 L 6.168293725552449 4.17588751047868 M 6.971463615035261 3.7281109456890165 L 6.954507053086744 3.7894465942446947 L 6.3455420413036805 3.9861099880349764 L 6.860761489171375 4.1285451084025135 L 6.843804927222859 4.189880756958192 L 6.231324665216875 4.020557374072292 L 6.248281227165392 3.9592217255166147 L 6.856370015397659 3.762316095127068 L 6.342026791080761 3.6201232113587953 L 6.358983353029277 3.5587875628031176 L 6.971463615035261 3.7281109456890165 M 7.014056386094861 3.391724550644875 Q 6.986272588230068 3.436244054191557 6.943994518536456 3.4582546345889105 Q 6.901716448842844 3.4802652149862636 6.853701782443798 3.475862352392672 L 6.862366623438865 3.4091499819862707 Q 6.908929530137539 3.410614104131087 6.948321690954419 3.3790614225372226 Q 6.9877138517713 3.347508740943358 6.996729970104004 3.2780918149799403 Q 7.005043533761435 3.214084000130555 6.976997444321727 3.1723971073172352 Q 6.948951354882019 3.130710214503916 6.898466317817715 3.124153037534676 Q 6.857897984462471 3.118883877470108 6.8304130989345975 3.136398761145552 Q 6.802928213406725 3.153913644820997 6.786776570240256 3.182984526447811 Q 6.770624927073786 3.212055408074625 6.749175084016943 3.264273040080882 Q 6.723849760944289 3.3251545799395554 6.702821637321141 3.360009175192951 Q 6.681793513697992 3.3948637704463462 6.644140129045287 3.4165582945540907 Q 6.606486744392581 3.438252818661835 6.547888040657227 3.4306418096796816 Q 6.499206040630934 3.4243188176021997 6.464170092057824 3.394099870120178 Q 6.429134143484713 3.363880922638156 6.413469413768427 3.315093259467776 Q 6.39780468405214 3.2663055962973964 6.405532785480173 3.2068053740430384 Q 6.416890752730464 3.119358077699512 6.46667988291304 3.071279616997955 Q 6.516469013095616 3.0232011562963983 6.585136734033936 3.023869423066296 L 6.576237708147111 3.0923848305107087 Q 6.536652764708722 3.093660484970937 6.501768196486869 3.125798628794198 Q 6.466883628265015 3.157936772617459 6.458921341945223 3.219240031909828 Q 6.451544517854828 3.27603569860717 6.47682750551458 3.3178220733423545 Q 6.502110493174332 3.359608448077539 6.554398567276646 3.3663998099385375 Q 6.594065382112885 3.371551877557226 6.621099508381255 3.353978447658842 Q 6.648133634649626 3.336405017760458 6.664794583298537 3.3069419230970807 Q 6.6814555319474485 3.2774788284337033 6.702788282558414 3.226162714946452 Q 6.727879420739308 3.1670842121257894 6.749475396067839 3.1313866445763283 Q 6.77107137139637 3.095689077026867 6.808724756049076 3.0739945529191224 Q 6.8463781407017805 3.052300028811378 6.904075325918129 3.0597939453476526 Q 6.948249733349394 3.065531475195738 6.984872144592772 3.094123024308568 Q 7.021494555836149 3.1227145734213977 7.039863841109452 3.171853513929415 Q 7.0582331263827545 3.220992454437433 7.049919562725325 3.2850002692868183 Q 7.041840183959654 3.3472050470981927 7.014056386094861 3.391724550644875 M 6.4461856745876736 2.790379338984301 L 7.0811866786654605 2.8143835919209264 L 7.078782819286971 2.877974536535297 L 6.443781815209184 2.853970283598671 L 6.4461856745876736 2.790379338984301 M 6.604090814092725 2.1100242800284983 Q 6.543621408467 2.1419924420020267 6.512072071774483 2.2004725977000117 Q 6.480522735081966 2.2589527533979963 6.486266039023732 2.3341884024586945 Q 6.491663360800333 2.4048917835036883 6.528585869361474 2.4586008353092264 Q 6.565508377922614 2.512309887114765 6.6282786141206875 2.5403406540311217 Q 6.691048850318761 2.568371420947479 6.770816767395163 2.562282134840545 Q 6.850584684471566 2.5561928487336116 6.908826004292809 2.518924358007304 Q 6.967067324114052 2.4816558672809967 6.995409474979059 2.422964672297058 Q 7.023751625844066 2.3642734773131195 7.018354304067466 2.293570096268126 Q 7.013302964456033 2.227398983238837 6.980701684624643 2.176551135095642 Q 6.948100404793252 2.125703286952447 6.892616395636824 2.0975721753733936 Q 6.837132386480396 2.0694410637943403 6.766083023270236 2.070306117555236 L 6.786426774582036 2.336803476878673 L 6.734758919203003 2.3407476735615735 L 6.709294631846735 2.0071727476057064 L 6.755523765606923 2.003643729521006 Q 6.8392634792610565 2.0018099256976436 6.909908112181556 2.0374452035780024 Q 6.980552745102057 2.0730804814583617 7.024754580731134 2.1385422818750692 Q 7.068956416360212 2.2040040822917772 7.075460881065346 2.289210720987026 Q 7.082172935069579 2.377136720491697 7.0463958143363 2.4518949928428486 Q 7.01061869360302 2.5266532651939997 6.939891162650051 2.57353641342913 Q 6.869163631697081 2.6204195616642596 6.775798910573563 2.627546794266693 Q 6.6824341894500465 2.634674026869127 6.6054097830910425 2.599069897218431 Q 6.5283853767320394 2.563465767567735 6.481675219579492 2.4950043706226173 Q 6.434965062426946 2.4265429736774995 6.428253008422712 2.338616974172828 Q 6.420503007922979 2.2370941706210425 6.465451909324071 2.1570770677073363 Q 6.510400810725163 2.07705996479363 6.598416706583991 2.035695084570941 L 6.604090814092725 2.1100242800284983 M 6.27238130760841 1.4337207792662605 L 6.889833882231628 1.2835382322443007 L 6.904873622276745 1.3453718234082854 L 6.616022417839274 1.4156288947619062 L 6.697451867512125 1.750413624064051 L 6.986303071949596 1.6801565527104305 L 7.001342811994713 1.741990143874415 L 6.383890237371496 1.8921726908963747 L 6.368850497326378 1.8303390997323903 L 6.646218320547681 1.762875122958577 L 6.56478887087483 1.428090393656432 L 6.2874210476535275 1.4955543704302452 L 6.27238130760841 1.4337207792662605 M 6.0815488970614435 0.9279884190908833 L 6.130654228168655 0.9087834263518255 L 6.194891617675158 1.0730322924690525 L 6.737590190773831 0.8607840106460183 L 6.760768630286487 0.9200490654305846 L 6.2180700571878145 1.1322973472536189 L 6.282638567258784 1.2973928570106255 L 6.2335332361515725 1.316597849749683 L 6.0815488970614435 0.9279884190908833 M 6.534516119728197 0.4488074636055905 Q 6.538015258168234 0.5011685335909544 6.516593428716866 0.5437479423398176 Q 6.495171599265498 0.5863273510886808 6.453649194811136 0.6108361926924397 L 6.421662575219704 0.5516544725262956 Q 6.460288718875328 0.525610875229083 6.473789143777211 0.4769790690004901 Q 6.487289568679093 0.4283472627718971 6.45400619423936 0.36676628368009845 Q 6.42331632949623 0.3099838224396088 6.376186903832599 0.2925712579557206 Q 6.329057478168968 0.2751586934718323 6.2842713115567514 0.2993647839734562 Q 6.248282427671934 0.3188161066979754 6.236231008023744 0.34909734457075486 Q 6.224179588375554 0.37937858244353434 6.2280794781575235 0.41240558041830766 Q 6.231979367939493 0.44543257839308104 6.245118417302028 0.5003337827637777 Q 6.2601807238999125 0.5645292717349573 6.263507486606104 0.6050996728087097 Q 6.266834249312294 0.6456700738824621 6.248978933120916 0.685288471575605 Q 6.231123616929538 0.7249068692687479 6.179139673540357 0.7530032243152757 Q 6.135953012878576 0.7763448115846987 6.089860466180992 0.7723224219628582 Q 6.043767919483408 0.7683000323410177 6.002529015657051 0.7378866693913017 Q 5.961290111830693 0.7074733064415855 5.932761505168065 0.6546896100771866 Q 5.890833098406324 0.5771135714810247 5.903102393571212 0.5089963176907737 Q 5.915371688736099 0.4408790639005227 5.971462897332557 0.4012624159160273 L 6.0043140201561895 0.4620436420326078 Q 5.972950403534512 0.48622873235145325 5.96344874350872 0.5326992804995441 Q 5.9539470834829284 0.579169828647635 5.9833401933777575 0.6335530309624701 Q 6.0105720451920845 0.6839374684012144 6.0555183377381105 0.703046664221013 Q 6.100464630284137 0.7221558600408116 6.146850302846791 0.6970852663069869 Q 6.1820394337563895 0.6780661951985681 6.193690976916971 0.6480010831338389 Q 6.205342520077551 0.6179359710691096 6.20162638097514 0.584292970798677 Q 6.19791024187273 0.5506499705282444 6.185203444126296 0.4965485191327659 Q 6.171005640760612 0.43395253611202256 6.16764650292593 0.39236625625500177 Q 6.164287365091248 0.350779976397981 6.182142681282626 0.31116157870483807 Q 6.199997997474004 0.2715431810116951 6.2511821878879665 0.2438790775812678 Q 6.290370083673657 0.22269874839234693 6.336797756601866 0.22447325463960044 Q 6.383225429530077 0.22624776088685394 6.426863592282089 0.2553643689882688 Q 6.4705017550341015 0.2844809770896837 6.501191619777232 0.3412634383301733 Q 6.531016981288161 0.3964463936202266 6.534516119728197 0.4488074636055905" fill="#bd2949" fill-rule="nonzero"></path></g><g clip-path="url(#SvgjsClipPath1004)"><g clip-path="url(#SvgjsClipPath10001887edc6-b05e-4f02-8e9b-77b7d4ff6b8c)"><path d=" M 2.3059974211561625 5.325627133986405 L 2.3059974211561625 2.6628209580105784 L 4.257226008288301 1.5362377435325352 L 4.257226008288301 4.1990587015431124 L 4.4346104253003125 4.096633982753427 L 4.4346104253003125 1.2289931512329781 L 2.12861300414415 2.560396239220892 L 2.12861300414415 5.018382541686848 L 0.17738441701201216 3.891814109243556 L 0.17738441701201216 1.4338278067775998 L 2.4833818381681754 0.10240993675493526 L 2.3059974211561625 0 L -3.938725279528932e-16 1.3314030879879135 L -3.938725279528932e-16 3.9942240459984917 L 2.3059974211561625 5.325627133986405 Z" fill="#bd2949" transform="matrix(1,0,0,1,0,0)" fill-rule="nonzero"></path></g><g clip-path="url(#SvgjsClipPath10001887edc6-b05e-4f02-8e9b-77b7d4ff6b8c)"><path d=" M 3.1929195062162252 4.813547886142226 L 3.3703039232282377 4.711137949387291 L 3.3703039232282377 3.0724754870650703 L 3.1929195062162252 3.1749002058547564 L 3.1929195062162252 4.813547886142226 Z" fill="#bd2949" transform="matrix(1,0,0,1,0,0)" fill-rule="nonzero"></path></g><g clip-path="url(#SvgjsClipPath10001887edc6-b05e-4f02-8e9b-77b7d4ff6b8c)"><path d=" M 2.8381506721922003 5.018382541686848 L 3.0155350892042128 4.915972604931913 L 3.0155350892042128 3.0724754870650703 L 3.54768834024025 2.765230894765513 L 3.54768834024025 4.608713230597606 L 3.7250727572522635 4.50630329384267 L 3.7250727572522635 2.4579863024659563 L 2.8381506721922003 2.9700655503101347 L 2.8381506721922003 5.018382541686848 Z" fill="#bd2949" transform="matrix(1,0,0,1,0,0)" fill-rule="nonzero"></path></g><g clip-path="url(#SvgjsClipPath10001887edc6-b05e-4f02-8e9b-77b7d4ff6b8c)"><path d=" M 1.0643065020720748 3.3797200793646267 L 1.2416909190840875 3.482144798154313 L 1.2416909190840875 2.0483169913767134 L 3.54768834024025 0.7169139033887999 L 3.3703039232282377 0.6144891845991136 L 1.0643065020720748 1.945907054621778 L 1.0643065020720748 3.3797200793646267 Z" fill="#bd2949" transform="matrix(1,0,0,1,0,0)" fill-rule="nonzero"></path></g><g clip-path="url(#SvgjsClipPath10001887edc6-b05e-4f02-8e9b-77b7d4ff6b8c)"><path d=" M 2.4833818381681754 5.223217197231469 L 2.660766255180188 5.120792478441784 L 2.660766255180188 2.8676408315204487 L 3.9024571742642755 2.150726928131649 L 3.9024571742642755 4.4038933570877346 L 4.0798415912762875 4.301468638298048 L 4.0798415912762875 1.843482335832092 L 2.4833818381681754 2.765230894765513 L 2.4833818381681754 5.223217197231469 Z" fill="#bd2949" transform="matrix(1,0,0,1,0,0)" fill-rule="nonzero"></path></g><g clip-path="url(#SvgjsClipPath10001887edc6-b05e-4f02-8e9b-77b7d4ff6b8c)"><path d=" M 0.7095376680480497 3.584554734909248 L 1.5964597531081124 4.096633982753427 L 1.5964597531081124 2.253151646921335 L 3.9024571742642755 0.9217485589334216 L 3.7250727572522635 0.8193238401437352 L 1.4190753360961 2.150726928131649 L 1.4190753360961 3.7893893904538696 L 0.8869220850600623 3.482144798154313 L 0.8869220850600623 1.843482335832092 L 3.1929195062162252 0.5120792478441784 L 3.0155350892042128 0.4096693110892431 L 0.7095376680480497 1.7410723990771566 L 0.7095376680480497 3.584554734909248 Z" fill="#bd2949" transform="matrix(1,0,0,1,0,0)" fill-rule="nonzero"></path></g><g clip-path="url(#SvgjsClipPath10001887edc6-b05e-4f02-8e9b-77b7d4ff6b8c)"><path d=" M 0.3547688340240247 3.7893893904538696 L 1.9512285871321378 4.711137949387291 L 1.9512285871321378 2.4579863024659563 L 4.257226008288301 1.1265684324432919 L 4.0798415912762875 1.0241584956883567 L 1.773844170120125 2.35556158367627 L 1.773844170120125 4.4038933570877346 L 0.5321532510360372 3.6869794536989344 L 0.5321532510360372 1.6386476802874703 L 2.8381506721922003 0.3072445922995568 L 2.660766255180188 0.20483465554462155 L 0.3547688340240247 1.5362377435325352 L 0.3547688340240247 3.7893893904538696 Z" fill="#bd2949" transform="matrix(1,0,0,1,0,0)" fill-rule="nonzero"></path></g></g><g><path d=" M -3.2626197006993802 2.6628135669932025 A 5.479924913349537 5.479924913349537 0 0 1 7.697230125999694 2.6628135669932025 A 5.479924913349537 5.479924913349537 0 0 1 -3.2626197006993802 2.6628135669932025 Z M -3.2126197006993804 2.6628135669932016 A 5.429924913349536 5.429924913349536 0 0 0 7.647230125999692 2.6628135669932016 A 5.429924913349536 5.429924913349536 0 0 0 -3.2126197006993804 2.6628135669932016 Z" fill="#0e1425" fill-rule="nonzero"></path></g><g transform="matrix(0.8649355471191384,-0.5018829538146484,0.5018829538146484,0.8649355471191384,0.17980885261906088,-0.57309806983177)"><g clip-path="url(#SvgjsClipPath1005)"><path d=" M -0.9748766688552915 -0.43047576382351144 C -0.8667592720371097 -0.43047576382351144 -0.7772028484332135 -0.5198405902845504 -0.7772028484332135 -0.6281495842455894 C -0.7772028484332135 -0.7362674165118231 -0.8667592720371097 -0.8258234046676673 -0.9750682659981487 -0.8258234046676673 C -1.0831858805403565 -0.8258234046676673 -1.1725504892773695 -0.7362674165118231 -1.1725504892773695 -0.6281495842455894 C -1.1725504892773695 -0.5198405902845504 -1.0829945011215254 -0.43047576382351144 -0.9748766688552915 -0.43047576382351144 Z M -0.9748766688552915 -0.46932208453779717 C -1.0629018393845122 -0.46932208453779717 -1.1335132245923045 -0.5401237605442908 -1.1335132245923045 -0.6281495842455894 C -1.1335132245923045 -0.7161747547748102 -1.0630932188033435 -0.7867863577066284 -0.9750682659981487 -0.7867863577066284 C -0.8870424422968499 -0.7867863577066284 -0.8162407662903564 -0.7161747547748102 -0.8160491691474994 -0.6281495842455894 C -0.8160491691474994 -0.5401237605442908 -0.8868508451539928 -0.46932208453779717 -0.9748766688552915 -0.46932208453779717 Z M -0.9752598631410059 -0.5001300342131219 C -0.9040728156085382 -0.5001300342131219 -0.846857118822824 -0.5571563110962388 -0.8470487159656812 -0.6283411813884465 C -0.8470487159656812 -0.6993344545377972 -0.9042644127513954 -0.7565514576676673 -0.9752598631410059 -0.7565514576676673 C -1.0464447334332136 -0.7565514576676673 -1.1032785422773694 -0.6995260516806543 -1.1032785422773694 -0.6283411813884465 C -1.1032785422773694 -0.5571563110962388 -1.0462531362903564 -0.5001300342131219 -0.9752598631410059 -0.5001300342131219 Z" fill="#0e1425" transform="matrix(1,0,0,1,0,0)" fill-rule="nonzero"></path></g></g><g transform="matrix(-0.8649355471191384,-0.5018829538146484,-0.5018829538146484,0.8649355471191384,9.776864737048683,2.6311052737753426)"><g clip-path="url(#SvgjsClipPath1006)"><path d=" M 5.409487094155605 -0.43047576382351144 C 5.5176044909737865 -0.43047576382351144 5.607160914577682 -0.5198405902845504 5.607160914577682 -0.6281495842455894 C 5.607160914577682 -0.7362674165118231 5.5176044909737865 -0.8258234046676673 5.409295497012748 -0.8258234046676673 C 5.301177882470539 -0.8258234046676673 5.211813273733527 -0.7362674165118231 5.211813273733527 -0.6281495842455894 C 5.211813273733527 -0.5198405902845504 5.301369261889371 -0.43047576382351144 5.409487094155605 -0.43047576382351144 Z M 5.409487094155605 -0.46932208453779717 C 5.321461923626384 -0.46932208453779717 5.250850538418591 -0.5401237605442908 5.250850538418591 -0.6281495842455894 C 5.250850538418591 -0.7161747547748102 5.321270544207552 -0.7867863577066284 5.409295497012748 -0.7867863577066284 C 5.497321320714046 -0.7867863577066284 5.56812299672054 -0.7161747547748102 5.568314593863397 -0.6281495842455894 C 5.568314593863397 -0.5401237605442908 5.497512917856903 -0.46932208453779717 5.409487094155605 -0.46932208453779717 Z M 5.40910389986989 -0.5001300342131219 C 5.480290947402358 -0.5001300342131219 5.537506644188072 -0.5571563110962388 5.537315047045214 -0.6283411813884465 C 5.537315047045214 -0.6993344545377972 5.480099350259501 -0.7565514576676673 5.40910389986989 -0.7565514576676673 C 5.337919029577682 -0.7565514576676673 5.281085220733527 -0.6995260516806543 5.281085220733527 -0.6283411813884465 C 5.281085220733527 -0.5571563110962388 5.338110626720539 -0.5001300342131219 5.40910389986989 -0.5001300342131219 Z" fill="#0e1425" transform="matrix(1,0,0,1,0,0)" fill-rule="nonzero"></path></g></g></g><defs><clipPath id="SvgjsClipPath1004"><path d=" M 0 0 h 4.4346104253003125 v 5.325627133986404 h -4.4346104253003125 Z"></path></clipPath><clipPath id="SvgjsClipPath10001887edc6-b05e-4f02-8e9b-77b7d4ff6b8c"><path d=" M -3.938725279528932e-16 0 L 4.4346104253003125 0 L 4.4346104253003125 5.325627133986404 L -7.877450559057864e-16 5.325627133986404 Z"></path></clipPath><clipPath id="SvgjsClipPath1005"><path d=" M -1.279690305218928 -0.9254365010313037 h 0.6096272727272728 v 0.6096272727272728 h -0.6096272727272728 Z"></path></clipPath><clipPath id="SvgjsClipPath1006"><path d=" M 5.104673457791968 -0.9254365010313037 h 0.6096272727272728 v 0.6096272727272728 h -0.6096272727272728 Z"></path></clipPath></defs></svg>